# xmcd
#
# Track frame offsets:
#	182
#	16437
#	40412
#	52367
#	71485
#	84482
#	102767
#	118912
#	136232
#	150117
#	167467
#	181977
#	194327
#	210167
#
# Disc length: 2989 seconds
#
# Revision: 2
# Processed by: cddbd v1.5.2PL0 Copyright (c) Steve Scherf et al.
# Submitted via: EasyCDDAExtractor 10.0.6.1
#
DISCID=b50bab0e
DTITLE=Jerry Jeff Walker - Lone Wolf~Best of Elektra Sessions (1978-79)
DYEAR=1998
DGENRE=Country
TTITLE0=Lone Wolf
TTITLE1=Eastern Avenue River Railway Blues
TTITLE2=Her Good Lovin' Grace
TTITLE3=Northeast Texas Women
TTITLE4=Bad News
TTITLE5=Too Old To Change
TTITLE6=Mountains Of Mexico
TTITLE7=Then Came The Children
TTITLE8=Cross The Borderline
TTITLE9=Hands On The Wheel
TTITLE10=Comfort And Crazy
TTITLE11=I'm Not Strange
TTITLE12=Boogie Mama
TTITLE13=I Ain't Living Long Like This
EXTD=The Best Of Jerry Jeff Walker Elektra Sessions
EXTT0=
EXTT1=
EXTT2=
EXTT3=
EXTT4=
EXTT5=
EXTT6=
EXTT7=
EXTT8=
EXTT9=
EXTT10=
EXTT11=
EXTT12=
EXTT13=
PLAYORDER=
